<?xml version="1.0" standalone="no"?>
<!DOCTYPE svg PUBLIC "-//W3C//DTD SVG 20010904//EN"
 "http://www.w3.org/TR/2001/REC-SVG-20010904/DTD/svg10.dtd">
<svg version="1.0" xmlns="http://www.w3.org/2000/svg"
 width="260.000000pt" height="260.000000pt" viewBox="0 0 260.000000 260.000000"
 preserveAspectRatio="xMidYMid meet">
<metadata>
Created by potrace 1.11, written by Peter Selinger 2001-2013
</metadata>
<g transform="translate(0.000000,260.000000) scale(0.100000,-0.100000)"
fill="#000000" stroke="none">
<path d="M1230 2394 c-127 -15 -114 -7 -166 -97 -58 -101 -144 -271 -139 -276
2 -2 11 3 19 12 21 21 138 41 201 34 46 -5 58 -2 96 24 l44 29 6 -23 c5 -20
15 -13 102 72 74 72 94 97 86 107 -8 10 -2 24 25 58 36 43 36 44 14 49 -32 8
-246 16 -288 11z"/>
<path d="M1005 2353 c-50 -13 -233 -107 -293 -152 -212 -157 -367 -401 -413
-651 -19 -102 -23 -255 -8 -320 l13 -58 44 86 c56 110 75 135 90 120 18 -18
51 19 88 100 39 85 41 96 14 89 -29 -7 -25 5 27 102 86 160 221 361 318 476
24 28 27 29 39 12 13 -17 16 -15 50 26 20 24 36 49 36 56 0 6 9 36 19 66 20
56 19 58 -24 48z"/>
<path d="M1579 2302 c-25 -27 -50 -51 -55 -53 -5 -2 -43 -49 -85 -104 -80
-106 -110 -153 -89 -140 7 4 25 -2 41 -14 15 -11 32 -21 36 -21 4 0 24 -17 44
-39 24 -25 41 -36 50 -31 8 4 25 11 37 15 21 6 23 4 17 -14 -9 -29 -1 -27 78
21 87 53 141 102 133 123 -3 10 12 28 47 55 29 22 57 44 63 49 5 4 20 14 32
20 12 6 22 16 22 20 0 24 -232 148 -294 158 -28 4 -37 -1 -77 -45z"/>
<path d="M1948 2121 c-25 -20 -66 -47 -89 -61 -38 -22 -118 -93 -251 -221
l-38 -36 24 -45 c30 -57 51 -169 33 -180 -34 -22 67 8 156 46 38 17 38 17 27
-4 -8 -15 -8 -25 -1 -34 8 -10 -12 -28 -88 -79 -92 -61 -99 -68 -105 -105 -7
-47 -52 -140 -80 -165 -27 -24 -16 -29 40 -17 108 23 103 24 59 -16 l-40 -36
35 7 c19 4 46 13 60 20 34 16 121 37 128 30 3 -3 1 -10 -4 -15 -14 -14 -138
-73 -240 -114 -49 -20 -97 -41 -106 -46 -10 -6 -23 -10 -29 -10 -6 0 -25 -6
-42 -14 -101 -45 -359 -121 -371 -108 -3 3 -6 12 -6 21 0 11 -10 16 -27 17
-45 2 -113 11 -119 16 -2 3 27 20 65 39 l70 34 -37 7 c-28 5 -56 0 -112 -19
l-75 -26 -49 30 -48 30 38 29 c53 40 64 51 57 58 -3 3 -35 -11 -70 -31 l-65
-36 -28 29 c-47 49 -84 79 -100 80 -8 1 -25 2 -37 3 -16 1 -23 7 -23 21 0 11
4 20 8 20 5 0 31 27 58 61 43 53 52 60 76 55 24 -5 35 3 94 68 37 41 75 87 85
103 l18 29 -24 -1 c-17 0 -48 -23 -99 -74 -66 -66 -73 -70 -69 -45 l5 29 -18
-25 c-10 -14 -22 -29 -27 -35 -4 -5 -27 -38 -51 -73 -40 -57 -45 -61 -51 -42
-7 22 -8 22 -26 -6 -24 -37 -24 -80 2 -171 44 -160 117 -283 234 -399 l71 -71
109 -2 c60 -1 113 -5 118 -8 5 -3 104 -7 220 -9 117 -2 228 -8 247 -14 19 -5
47 -10 62 -10 16 0 28 -4 28 -9 0 -44 -661 -24 -774 23 -30 12 -55 15 -98 10
-32 -4 -58 -8 -58 -11 0 -17 152 -128 242 -177 267 -144 672 -150 941 -15 61
31 197 122 232 155 l30 29 -35 3 c-19 2 -78 -1 -131 -8 -83 -9 -103 -9 -134 5
-26 10 -71 15 -145 15 -110 0 -144 5 -135 21 3 4 13 5 22 2 13 -5 15 -2 10 11
-7 17 7 18 296 11 l303 -7 34 38 c48 56 116 163 150 240 17 37 29 68 27 70 -2
2 -19 -1 -38 -6 -77 -21 -167 -40 -221 -46 -47 -5 -63 -3 -85 12 l-28 19 45 8
c25 4 65 12 90 17 25 5 89 17 142 27 54 10 104 25 111 33 20 21 40 137 44 257
l4 101 -133 -54 c-149 -60 -192 -69 -143 -29 17 13 37 30 45 37 9 7 29 19 45
27 17 7 46 22 65 31 19 10 50 21 67 25 18 3 35 10 37 14 7 10 -15 153 -24 166
-4 6 -11 24 -15 42 -8 37 -43 113 -52 113 -3 0 -25 -11 -49 -25 -39 -23 -74
-25 -74 -5 0 5 -2 15 -5 22 -4 10 12 23 50 42 51 25 54 28 44 49 -28 53 -102
147 -166 208 l-68 67 -47 -37z m-192 -1220 c-3 -5 -18 -11 -33 -14 -16 -3 -57
-13 -93 -22 -177 -45 -422 -85 -610 -100 -77 -7 -84 -6 -70 8 8 9 48 21 90 28
41 6 84 15 95 20 11 4 54 12 95 18 77 11 205 31 345 55 94 16 189 20 181 7z"/>
<path d="M895 1396 c-135 -93 -206 -166 -161 -166 15 0 103 65 180 133 41 37
46 45 30 49 -10 2 -33 -5 -49 -16z"/>
<path d="M450 444 c-200 -31 -291 -65 -318 -120 -14 -31 -14 -37 0 -68 35 -72
181 -110 563 -148 177 -18 973 -18 1150 0 382 38 528 76 563 148 14 31 14 37
0 68 -27 55 -120 90 -305 117 l-93 13 -132 -66 c-225 -112 -328 -138 -554
-138 -138 0 -175 4 -256 24 -120 30 -224 72 -340 136 -102 57 -116 58 -278 34z"/>
</g>
</svg>
